<svg id="Camada_1" data-name="Camada 1" xmlns="http://www.w3.org/2000/svg" viewBox="0 0 462.81 173.31"><path d="M143.88,304.69c7.51,14.26,13,27.35,20.85,38.78,7.6,11,18.76,14,32.79,10.23,9-2.43,19.63-1.56,29,.39,11.22,2.35,20,0,28.06-7.4C266.7,335.51,272.12,321,275,304.83c18.19,27.63,11.51,55.71-13.15,69.12-16.72,9.1-23.64,24.66-26.33,42.4-2,13.32-1,26.33,5.3,38.83,1.43,2.84.19,8.55-1.92,11.37-11.31,15.18-44,15.31-55.39.12-2.15-2.85-2.83-8.87-1.32-12.08,14.35-30.47,3.16-65.25-26.08-83-11.44-7-19.3-18.46-18.82-32.26C137.67,327.71,141.54,316.25,143.88,304.69Z" transform="translate(-126.19 -304.69)"/><path d="M126.19,385.3c23-15.26,42.14-9.51,51.31,15.23,6.13,16.56,8.12,33.38.33,50l-3.14,1c-3.28-8.55-7.12-16.94-9.65-25.71-1.47-5.1-2.89-8.51-8.46-10.53C142.25,410.12,132.6,399.66,126.19,385.3Z" transform="translate(-126.19 -304.69)"/><path d="M243.57,450.64c-1.21-7.64-3.69-15.33-3.31-22.88a94.16,94.16,0,0,1,5.39-27.86c9.2-24.56,27.69-29.75,50.35-14.63-5.95,13.8-15.39,24.25-29.58,29.74-5.46,2.11-7.86,5.11-9.28,10.93-2.11,8.66-6.11,16.85-9.3,25.24Z" transform="translate(-126.19 -304.69)"/><path d="M383,362.12l.18-.24a13.68,13.68,0,0,1,6.41,1.54,8.84,8.84,0,0,1,3.64,3.74,11.12,11.12,0,0,1,1.16,5.1,11,11,0,0,1-1.36,5.43,9.69,9.69,0,0,1-4.45,3.94,19.24,19.24,0,0,1-8.25,1.48H365v-.89l6.35-.83-.42.48v-38.5l.42.48-6.35-.6v-.89l7.18-.29h8.54a16.18,16.18,0,0,1,6.94,1.27,8.52,8.52,0,0,1,3.91,3.5,10.37,10.37,0,0,1,1.25,5.13,10,10,0,0,1-2.17,6.41C389.21,360.2,386.67,361.44,383,362.12Zm-2.61-18.92H371.7l.42-.42v19.16l-.42-.42h7.06a18.68,18.68,0,0,0,7.45-1.24,8.5,8.5,0,0,0,4.06-3.38,9.39,9.39,0,0,0,1.24-4.81,9.06,9.06,0,0,0-1.15-4.65,7.75,7.75,0,0,0-3.59-3.12A15.25,15.25,0,0,0,380.42,343.2ZM380.36,382a17.86,17.86,0,0,0,7.48-1.31,8.71,8.71,0,0,0,4-3.47,9.5,9.5,0,0,0,1.25-4.83,10.44,10.44,0,0,0-1.16-4.89,8.33,8.33,0,0,0-3.59-3.53,13.41,13.41,0,0,0-6.35-1.31H371.7l.42-.41V382.4l-.42-.41Z" transform="translate(-126.19 -304.69)"/><path d="M422.36,382l-.42-.48,5.76.6V383l-6.23.23-.24-5.69.24.18a21.1,21.1,0,0,1-6,4.24,14.72,14.72,0,0,1-6.26,1.51,7.48,7.48,0,0,1-5.49-2.08c-1.4-1.38-2.1-3.5-2.1-6.34a8.29,8.29,0,0,1,1.42-5.28,6.8,6.8,0,0,1,3.83-2.37,21.89,21.89,0,0,1,5.31-.6h9.37l-.42.42v-7.3q0-3.74-2.13-5.37a9.21,9.21,0,0,0-5.7-1.63,21.58,21.58,0,0,0-4.21.45,29.39,29.39,0,0,0-4.63,1.33l.42-.65-.42,5.81h-1L403,354a37.32,37.32,0,0,1,5.43-1.63,23.47,23.47,0,0,1,4.95-.56,10.64,10.64,0,0,1,6.5,1.83q2.46,1.85,2.46,6.11Zm-19.46-7.18c0,2.57.62,4.47,1.84,5.69a6.34,6.34,0,0,0,4.69,1.84,13.88,13.88,0,0,0,5.87-1.51,24.76,24.76,0,0,0,6.17-4.24l-.3.65v-9.73l.42.42h-9.26q-5,0-7.23,1.51T402.9,374.81Z" transform="translate(-126.19 -304.69)"/><path d="M453.2,376.23l.06,6.83-21.35.05v-.89l19.81-29.42.24.42H433.69l.59-.53-.77,5.57h-.89l-.06-6.11h20.35v1l-19.7,29.36-.23-.41,19.09-.06-.59.53.83-6.29Z" transform="translate(-126.19 -304.69)"/><path d="M481.2,382l-.42-.48,5.76.6V383l-6.23.23-.24-5.69.24.18a21.1,21.1,0,0,1-6,4.24,14.72,14.72,0,0,1-6.26,1.51,7.48,7.48,0,0,1-5.49-2.08c-1.4-1.38-2.1-3.5-2.1-6.34a8.29,8.29,0,0,1,1.42-5.28,6.8,6.8,0,0,1,3.83-2.37,21.89,21.89,0,0,1,5.31-.6h9.37l-.42.42v-7.3q0-3.74-2.13-5.37a9.21,9.21,0,0,0-5.7-1.63,21.58,21.58,0,0,0-4.21.45,29,29,0,0,0-4.62,1.33l.41-.65-.41,5.81h-1l-.48-5.87a37.32,37.32,0,0,1,5.43-1.63,23.47,23.47,0,0,1,4.95-.56,10.64,10.64,0,0,1,6.5,1.83q2.46,1.85,2.46,6.11Zm-19.46-7.18c0,2.57.62,4.47,1.84,5.69a6.34,6.34,0,0,0,4.69,1.84,13.84,13.84,0,0,0,5.87-1.51,24.76,24.76,0,0,0,6.17-4.24l-.3.65v-9.73l.42.42h-9.26q-5,0-7.23,1.51T461.74,374.81Z" transform="translate(-126.19 -304.69)"/><path d="M490.75,383.11v-.89l5.75-.83-.41.48V353.52l.41.47-5.75-.83v-.89L497,352l.29,6-.23-.17a25.24,25.24,0,0,1,5.1-4.39,10.36,10.36,0,0,1,5.63-1.6,13.72,13.72,0,0,1,3.92.59l-.3,6.35h-1l-.59-6,.3.48A10.09,10.09,0,0,0,509,353a10.42,10.42,0,0,0-1.1-.06,10.3,10.3,0,0,0-5.57,1.69,26.55,26.55,0,0,0-5.28,4.54l.23-.65v23.31l-.41-.48,6.94.83v.89Z" transform="translate(-126.19 -304.69)"/><path d="M538.84,383.47A6.69,6.69,0,0,1,535,382.3a8,8,0,0,1-2.75-3.45,13.24,13.24,0,0,1-1-5.46q0-5,2.56-7.75a9,9,0,0,1,6.87-2.71,16.23,16.23,0,0,1,2.55.21,19.73,19.73,0,0,1,2.75.64l-.26.15v-9.12l.26.31-3.92-.58V354l4.42-.19v28.7l-.26-.31,3.73.39v.57l-4,.16-.19-3.27.15.11a13.54,13.54,0,0,1-3.56,2.48A8.13,8.13,0,0,1,538.84,383.47Zm.08-.73a7.85,7.85,0,0,0,3.44-.87,12.61,12.61,0,0,0,3.52-2.63l-.15.46V364.35l.19.27a16.61,16.61,0,0,0-5.27-1,8,8,0,0,0-6.31,2.54c-1.51,1.69-2.27,4.08-2.27,7.15a12.74,12.74,0,0,0,.92,5.08,7.53,7.53,0,0,0,2.48,3.21A5.88,5.88,0,0,0,538.92,382.74Z" transform="translate(-126.19 -304.69)"/><path d="M562.46,362.93a7.68,7.68,0,0,1,6.11,2.61c1.52,1.75,2.27,4.19,2.27,7.31a13.45,13.45,0,0,1-1.07,5.54,8.68,8.68,0,0,1-3.08,3.73,8.46,8.46,0,0,1-4.85,1.35,7.55,7.55,0,0,1-6-2.52q-2.21-2.52-2.21-7.29a13.89,13.89,0,0,1,1.06-5.67,8.35,8.35,0,0,1,3-3.73A8.22,8.22,0,0,1,562.46,362.93Zm-.08.73a7,7,0,0,0-5.83,2.71,11.52,11.52,0,0,0-2.09,7.21c0,2.95.66,5.22,2,6.79a6.76,6.76,0,0,0,5.48,2.37,7.58,7.58,0,0,0,4.38-1.23,7.79,7.79,0,0,0,2.77-3.44,12.74,12.74,0,0,0,1-5.1,10.41,10.41,0,0,0-2.06-6.83A6.9,6.9,0,0,0,562.38,363.66Z" transform="translate(-126.19 -304.69)"/><path d="M577,367.85a3.34,3.34,0,0,0,.87,2.46,5.49,5.49,0,0,0,2.25,1.37c.92.32,1.89.61,2.9.87a21.85,21.85,0,0,1,2.9.94,5.61,5.61,0,0,1,2.25,1.56,4.12,4.12,0,0,1,.87,2.8,4.66,4.66,0,0,1-1.06,3.14,6.23,6.23,0,0,1-2.81,1.86,11.53,11.53,0,0,1-3.86.62,16.4,16.4,0,0,1-2.69-.21c-.85-.14-1.72-.33-2.62-.56l.27-4.35h.54l.34,4.16-.23-.31c.67.15,1.4.3,2.2.42a14.21,14.21,0,0,0,2.3.2,10.5,10.5,0,0,0,3.48-.54,5.58,5.58,0,0,0,2.49-1.64,4,4,0,0,0,.92-2.67,3.55,3.55,0,0,0-.87-2.56,5.79,5.79,0,0,0-2.25-1.42,27.31,27.31,0,0,0-2.9-.91,24.09,24.09,0,0,1-2.91-.92,5.85,5.85,0,0,1-2.25-1.5,3.91,3.91,0,0,1-.86-2.69,4.26,4.26,0,0,1,.94-2.85,5.65,5.65,0,0,1,2.48-1.65,10,10,0,0,1,3.31-.54,14.28,14.28,0,0,1,2.52.25,14,14,0,0,1,2.83.83l-.12,3.42h-.57l-.51-3.42.24.38a14,14,0,0,0-4.47-.73,8.2,8.2,0,0,0-4.19,1A3.42,3.42,0,0,0,577,367.85Z" transform="translate(-126.19 -304.69)"/><path d="M346.32,458.64l-2.76-9c-.13-.24-.28-.36-.46-.36H320.41c-.19,0-.34.12-.47.36l-2.67,9a1.17,1.17,0,0,1-1.2.93H304.36a1,1,0,0,1-.83-.33,1,1,0,0,1-.1-1l19.93-62.35a1.15,1.15,0,0,1,1.2-.92H339a1.17,1.17,0,0,1,1.2.92l19.92,62.35a1.09,1.09,0,0,1,.09.47c0,.55-.34.83-1,.83H347.52A1.17,1.17,0,0,1,346.32,458.64Zm-22.69-19.46h16.24c.37,0,.49-.18.37-.55l-8.3-27.4c-.07-.24-.16-.35-.28-.32s-.22.14-.28.32l-8.12,27.4C323.2,439,323.33,439.18,323.63,439.18Z" transform="translate(-126.19 -304.69)"/><path d="M394.84,442.87a.38.38,0,0,0,.09-.28c.06-.73.49-1,1.29-.92l10.61,1.66a1,1,0,0,1,.92,1,12.79,12.79,0,0,1-.55,2.76,17.71,17.71,0,0,1-5.81,8.44,21.28,21.28,0,0,1-9.87,4.39c-.18,0-.28.06-.28.18a.53.53,0,0,0,.19.37q4,3.87,4,8.12a9.34,9.34,0,0,1-.27,2.21,7.07,7.07,0,0,1-3.19,4.52,10.6,10.6,0,0,1-5.48,1.38,16.12,16.12,0,0,1-5.72-1,1.08,1.08,0,0,1-.83-1.39l.64-4.52c.06-.73.52-1,1.39-.83a6.18,6.18,0,0,0,1.84.28,2.7,2.7,0,0,0,3-2,2.77,2.77,0,0,0,.1-.83,5.33,5.33,0,0,0-1.2-3.09A16.62,16.62,0,0,0,382.2,460l-.55-.28a19.86,19.86,0,0,1-15.31-13.28,33.78,33.78,0,0,1-1.57-10.89,32.55,32.55,0,0,1,1.57-10.69A19.14,19.14,0,0,1,374,415a24.64,24.64,0,0,1,25.78.1,17.69,17.69,0,0,1,7.43,9.31,11.88,11.88,0,0,1,.74,3.32v.19a1,1,0,0,1-.92,1l-10.61,1.57h-.19a1.09,1.09,0,0,1-1.1-.92l-.28-1.48a7,7,0,0,0-2.86-4,8.84,8.84,0,0,0-5.26-1.57,8.25,8.25,0,0,0-5,1.47,7.91,7.91,0,0,0-2.86,4.06,22.89,22.89,0,0,0-1,7.57,24.6,24.6,0,0,0,.92,7.56,7.87,7.87,0,0,0,7.93,5.9,8.5,8.5,0,0,0,5-1.52,7.81,7.81,0,0,0,3-4.2A1.27,1.27,0,0,0,394.84,442.87Z" transform="translate(-126.19 -304.69)"/><path d="M422.6,456.25A20.28,20.28,0,0,1,415,445.18a32.88,32.88,0,0,1-1.29-9.41A34.27,34.27,0,0,1,415,426a19.82,19.82,0,0,1,7.65-10.7A22.6,22.6,0,0,1,436,411.42a21.55,21.55,0,0,1,12.91,3.83,20.34,20.34,0,0,1,7.56,10.65,31.36,31.36,0,0,1,1.48,9.68,32.55,32.55,0,0,1-1.29,9.32,20.66,20.66,0,0,1-7.52,11.3,21.44,21.44,0,0,1-13.23,4.1A21.89,21.89,0,0,1,422.6,456.25Zm18.45-8.95a10.23,10.23,0,0,0,3-5.08,26.57,26.57,0,0,0,.74-6.45,25.1,25.1,0,0,0-.74-6.55,10.23,10.23,0,0,0-3.13-4.89,8.57,8.57,0,0,0-10.38,0,9.91,9.91,0,0,0-3,4.89,22.11,22.11,0,0,0-.73,6.55,25.07,25.07,0,0,0,.64,6.45,10,10,0,0,0,3.09,5.08,7.89,7.89,0,0,0,5.31,1.84A7.61,7.61,0,0,0,441.05,447.3Z" transform="translate(-126.19 -304.69)"/><path d="M495.19,412.8a1.15,1.15,0,0,1,.56,1.39l-1.94,10.51c-.06.74-.49.95-1.29.65a10.15,10.15,0,0,0-3.23-.46,15.65,15.65,0,0,0-2,.18,9,9,0,0,0-5.62,2.44,7.55,7.55,0,0,0-2.31,5.77v25.18a1.13,1.13,0,0,1-1.11,1.11H467.43a1.13,1.13,0,0,1-1.11-1.11v-45.2a1.05,1.05,0,0,1,.33-.78,1,1,0,0,1,.78-.32h10.79a1,1,0,0,1,.78.32,1.05,1.05,0,0,1,.33.78v3.51a.38.38,0,0,0,.18.37.19.19,0,0,0,.28-.09,11.72,11.72,0,0,1,10.15-5.54A9.35,9.35,0,0,1,495.19,412.8Z" transform="translate(-126.19 -304.69)"/><path d="M542.79,438.81a1.07,1.07,0,0,1-1.2,1.11h-28.5c-.37,0-.5.15-.37.46a16.37,16.37,0,0,0,1,3.69q2.4,5.16,9.78,5.17a11.14,11.14,0,0,0,9.32-4.8,1,1,0,0,1,.83-.55,1,1,0,0,1,.64.37l6.64,6.54a1.28,1.28,0,0,1,.46.83,1.82,1.82,0,0,1-.37.74,20,20,0,0,1-7.84,5.86,26.21,26.21,0,0,1-10.51,2.07,23.93,23.93,0,0,1-13.42-3.59,20,20,0,0,1-7.89-10.06q-1.94-4.61-1.93-12.08a26.67,26.67,0,0,1,1.38-8.95,20.24,20.24,0,0,1,7.43-10.42,20.76,20.76,0,0,1,12.59-3.87q9.21,0,14.8,5.35T542.42,431A39.84,39.84,0,0,1,542.79,438.81ZM513.27,428a20.87,20.87,0,0,0-.64,3,.4.4,0,0,0,.46.46H529c.37,0,.5-.15.37-.46-.3-1.78-.46-2.64-.46-2.58a8,8,0,0,0-2.9-4.29,8.46,8.46,0,0,0-5.12-1.52Q515.11,422.58,513.27,428Z" transform="translate(-126.19 -304.69)"/><path d="M558.28,458.46a16.47,16.47,0,0,1-7.14-4.89,11,11,0,0,1-2.54-7.1v-.92a1.09,1.09,0,0,1,1.11-1.11H560a1.09,1.09,0,0,1,1.1,1.11v.09a4.1,4.1,0,0,0,2.26,3.46,10.46,10.46,0,0,0,5.67,1.43,9.3,9.3,0,0,0,5.08-1.25,3.62,3.62,0,0,0,1.93-3.09,2.67,2.67,0,0,0-1.66-2.49,28,28,0,0,0-5.44-1.75,56.16,56.16,0,0,1-6.82-2.12,29.3,29.3,0,0,1-9.41-5q-3.51-3-3.51-8.49a12.89,12.89,0,0,1,5.31-10.84q5.29-4,14.06-4a26.12,26.12,0,0,1,10.33,1.89,15.91,15.91,0,0,1,6.87,5.3,13,13,0,0,1,2.45,7.75,1.09,1.09,0,0,1-1.11,1.11h-9.87a1.09,1.09,0,0,1-1.1-1.11A4,4,0,0,0,574,423a9.75,9.75,0,0,0-5.49-1.38,10,10,0,0,0-5,1.1,3.4,3.4,0,0,0-1.94,3.05,2.93,2.93,0,0,0,1.9,2.76,31.34,31.34,0,0,0,6.31,1.94q1,.28,2.31.6c.86.22,1.78.48,2.77.79a30.05,30.05,0,0,1,10.33,5c2.52,2,3.78,5,3.78,8.85a12.32,12.32,0,0,1-5.4,10.65q-5.39,3.84-14.52,3.83A30.35,30.35,0,0,1,558.28,458.46Z" transform="translate(-126.19 -304.69)"/></svg>